<svg xmlns="http://www.w3.org/2000/svg" viewBox="0 0 458 340" fill="#004B87">
  <path d="M0 248.5l37.2-181.1h326.6l10.1 7.2c35 23.4 56.6 42.1 63.8 55.4 9.1 16.7 9.8 40.8-22 57.5-12.8 6.7-27.7 8.1-43.5 8.1h-24.8l-40.8 19.9c25 15.6 57.3 15.6 77.2 4.1 27.2-15.6 28.5-47.5 13.5-68.8-12.7-18.1-39.2-31.5-66.2-41.2l-3.2-1.1h-244l-25 111.4h37.4l273.7-133.2L18.7 325.3 0 248.5z"/>
  <path d="M11.6 257.6h42.7l12.7 41.6h1.1l11.7-41.6h41.4l-28.5 81.3H41.4l-29.8-81.3zM108.9 257.6h38.2l12 43.1h1.1l12-43.1h38.2l-21.6 81.3H131l-22.1-81.3zM212.1 257.6H255l14 53.6h1.1l14.1-53.6h41.6l-29.8 81.3h-44l-29.9-81.3zM326.3 257.6h42.1l12.3 43.1h1.1l12.3-43.1h42.1l-22.1 81.3h-65.7l-22.1-81.3zM0 310h56.8l7.5 28.9H0v-28.9zM100.2 310h51.5l7.5 28.9h-59l-.02-28.9zM203.4 310h56l7.5 28.9h-63.5V310zM317.5 310h56.4l7.5 28.9h-63.9V310z"/>
</svg>