<svg width="30" height="30" viewBox="0 0 30 30" fill="none" xmlns="http://www.w3.org/2000/svg">
<path d="M14.9836 28.8822C15.232 28.758 21.6904 25.9635 23.7397 24.2868C25.8511 22.548 26.9689 20.0639 26.9689 17.0831V3.11057L26.7826 3.04847C21.6283 0.253961 15.232 0.440262 14.9215 0.440262C14.6731 0.440262 8.27679 0.253961 3.12249 3.04847L2.99829 3.11057V17.1452C2.99829 20.126 4.11609 22.6101 6.22749 24.3489C8.27679 26.0256 14.7352 28.8201 14.9836 28.8822Z" fill="#371400"/>
<path d="M14.9837 29.1924C14.9837 29.1924 8.15269 26.2116 6.04129 24.5349C3.8057 22.6718 2.75 20.1257 2.75 17.207V2.67557C8.15269 -0.243145 14.9837 0.00525541 14.9837 0.00525541C14.9837 0.00525541 21.8147 -0.243145 27.2173 2.67557V17.1449C27.2173 20.0636 26.1616 22.6097 23.9261 24.4728C21.8147 26.2116 14.9837 29.1924 14.9837 29.1924V29.1924ZM3.7436 17.207C3.7436 19.9394 4.7372 22.175 6.66229 23.7276C8.40109 25.1559 13.5554 27.4536 14.9837 28.0746C16.412 27.4536 21.6284 25.0938 23.3051 23.7276C25.2302 22.175 26.2237 19.8773 26.2237 17.207V2.92397C19.0202 2.24086 10.4504 2.61347 3.7436 8.82349V17.207V17.207Z" fill="#FEBE10"/>
<path d="M21.8769 15.1581C22.8084 15.717 23.181 16.0896 23.2431 16.7727C23.2431 17.5179 22.7463 17.9526 21.939 17.9526C21.2559 17.9526 20.4486 17.58 19.8897 17.0832V19.0704C20.5728 19.443 21.3801 19.7535 22.2495 19.7535C24.3609 19.7535 25.3545 18.2631 25.3545 16.8969C25.4166 15.6549 25.044 14.6613 23.2431 13.6056C22.4358 13.1088 21.8148 12.7983 21.8148 12.053C21.8148 11.3078 22.4979 10.9973 23.0568 10.9973C23.802 10.9973 24.5472 11.432 24.9819 11.8667V10.0037C24.6093 9.69322 23.802 9.25852 22.6221 9.32062C21.1938 9.38272 19.7034 10.3763 19.7034 12.1151C19.7655 13.2951 20.1381 14.1645 21.8769 15.1581V15.1581ZM14.5491 19.6293C14.7354 19.6914 15.0459 19.7535 15.5427 19.7535C17.9646 19.7535 19.3308 17.58 19.3308 14.475C19.3308 11.3078 17.9025 9.38272 15.3564 9.38272C14.1765 9.38272 13.2449 9.63112 12.4376 10.1279V24.1627H14.5491V19.6293V19.6293ZM14.5491 11.1836C14.7354 11.1215 15.0459 10.9973 15.2943 10.9973C16.5363 10.9973 17.0331 11.9909 17.0331 14.4129C17.0331 16.7727 16.4121 17.8905 15.1701 17.8905C14.8596 17.8905 14.6112 17.8284 14.487 17.7663V11.1836H14.5491ZM8.02853 19.7535C9.33263 19.7535 10.4504 19.443 11.2577 18.8841V9.50692H9.08423V17.6421C8.83583 17.8284 8.52533 17.8905 8.09063 17.8905C7.09703 17.8905 6.97282 16.959 6.97282 16.4001V9.50692H4.79932V16.2759C4.79932 18.5736 5.91712 19.7535 8.02853 19.7535V19.7535ZM22.4979 28.1371V29.5654H22.7463V29.0065H22.8084L23.181 29.5654H23.4915C23.4915 29.5654 23.1189 29.0065 23.0568 28.9444C23.2431 28.8823 23.3673 28.7581 23.3673 28.5718C23.3673 28.3855 23.2431 28.1371 22.8705 28.1371H22.4979V28.1371ZM22.8705 28.3234C23.0568 28.3234 23.1189 28.4476 23.1189 28.5097C23.1189 28.6339 23.0568 28.7581 22.8084 28.7581H22.7463V28.3234H22.8705V28.3234Z" fill="#FEBE10"/>
<path d="M23.8641 28.8201C23.8641 29.3169 23.4294 29.7516 22.9326 29.7516C22.4358 29.7516 22.0011 29.3169 22.0011 28.8201C22.0011 28.3233 22.4358 27.8886 22.9326 27.8886C23.4915 27.8886 23.8641 28.3233 23.8641 28.8201ZM22.9326 27.6402C22.3116 27.6402 21.7527 28.137 21.7527 28.8201C21.7527 29.4411 22.2495 30 22.9326 30C23.5536 30 24.1125 29.5032 24.1125 28.8201C24.1125 28.1991 23.5536 27.6402 22.9326 27.6402Z" fill="#FEBE10"/>
</svg>
