<svg width="30" height="30" viewBox="0 0 30 30" fill="none" xmlns="http://www.w3.org/2000/svg">
<g clip-path="url(#clip0)">
<rect width="30" height="30" rx="2" fill="#304C9C"/>
<path fill-rule="evenodd" clip-rule="evenodd" d="M22.5 24.2411L26.25 6.11615L0 5.83813V24.2411H22.5Z" fill="white"/>
<path fill-rule="evenodd" clip-rule="evenodd" d="M0.0816782 5.83993C0.0816782 5.83993 15.9666 9.10556 16.2814 9.15899C19.9309 9.80287 19.8181 10.508 19.8181 10.508C22.3734 10.4937 22.6882 10.5979 23.1352 10.97C24.481 12.0942 22.2939 15.4015 22.2939 15.4015C21.9817 15.6348 -1.64856 24.7611 -1.64856 24.7611H23.0733L27.1171 5.75L0.0973189 5.75261L0.0816782 5.83993Z" fill="#304C9C"/>
<path fill-rule="evenodd" clip-rule="evenodd" d="M18.5758 11.9983C18.2173 12.1756 17.2796 12.2714 16.8436 12.3105C16.42 12.3463 16.3066 12.388 16.3001 12.5496C16.2936 12.6943 16.3626 12.7777 16.9668 12.7777C18.3549 12.7777 20.8541 12.2531 21.6068 12.4929C22.0037 12.6187 21.6824 13.3297 21.3598 14.259C21.234 14.6187 21.481 14.5953 21.6244 14.4356C21.7691 14.2799 22.4162 13.0925 22.4866 12.4871C22.5856 11.6288 21.8525 11.4998 20.8345 11.4998H19.2196C19.1369 11.4998 19.0658 11.5571 18.9661 11.6894C18.8775 11.8067 18.8045 11.8817 18.5758 11.9983Z" fill="#304C9C"/>
<path fill-rule="evenodd" clip-rule="evenodd" d="M-0.836755 10.1456L-3.93945 24.7656C-3.93945 24.7656 5.56741 20.0995 6.72742 19.5025C9.1113 18.2806 12.4036 16.6605 15.4477 15.623C16.0283 15.4256 18.5152 14.6605 19.96 14.4031C20.5237 14.3014 20.759 14.2082 20.7518 14.1039C20.7316 13.8035 20.1692 13.7866 19.2132 13.8309C16.2994 13.969 10.7138 16.1913 9.10869 17.0398L7.29373 11.417H18.8867C19.4054 9.95657 12.0257 10.1599 11.793 10.1456H-0.836755Z" fill="#304C9C"/>
</g>
<defs>
<clipPath id="clip0">
<path d="M0 0H30V30H0V0Z" fill="white"/>
</clipPath>
</defs>
</svg>
